#!OML:ASF H:\charlestonDancing\Project 1\Capture day 1\Session 1\femaleDancer.ASF
:FULLY-SPECIFIED
:DEGREES
410
root -2.29733 17.9082 6.32953 882.803 -73.5136 -876.01
lowerback 22.203 -6.57441 -2.32123
upperback 5.4146 -9.53971 -0.761681
thorax -6.08819 -4.77387 3.02693
lowerneck 5.01498 -16.5932 -9.06063
upperneck -13.2122 -22.1334 14.9525
head -2.01534 -11.6611 6.09041
rclavicle 6.91771e-014 6.67916e-014
rhumerus -25.1824 -5.03279 -57.3842
rradius 69.9139
rwrist -55.7947
rhand 2.37761 -24.8465
rfingers 7.12502
rthumb 27.8657 -52.7997
lclavicle 6.91771e-014 6.67916e-014
lhumerus -54.4369 -0.899999 79.5994
lradius 43.753
lwrist -2.14591
lhand -15.8498 20.1048
lfingers 7.12502
lthumb 10.3451 49.8303
rfemur -41.1425 17.0187 19.5731
rtibia 109.318
rfoot -22.2633 5.52097
rtoes -24.9699
lfemur -23.5512 8.38907 -21.1777
ltibia 34.8957
lfoot -13.5022 -7.37232
ltoes -21.0841
411
root -2.35337 17.8548 6.34729 881.482 -72.9807 -874.178
lowerback 21.8018 -6.49687 -1.76422
upperback 5.12083 -9.26792 -0.502086
thorax -6.25807 -4.62899 2.90567
lowerneck 5.91383 -16.9643 -9.68301
upperneck -12.9261 -22.6649 15.6556
head -1.84934 -11.9467 6.38002
rclavicle 6.36111e-015 -5.08889e-014
rhumerus -25.8723 -4.94917 -56.5745
rradius 70.0529
rwrist -56.199
rhand 3.22946 -24.7627
rfingers 7.12502
rthumb 28.6798 -52.581
lclavicle 6.36111e-015 -5.08889e-014
lhumerus -57.4163 0.996351 81.9107
lradius 38.9917
lwrist -2.05132
lhand -13.4716 19.9341
lfingers 7.12502
lthumb 12.6386 49.5318
rfemur -37.6065 17.0617 19.0084
rtibia 108.363
rfoot -21.9636 3.97674
rtoes -28.1631
lfemur -24.3871 8.34383 -20.6614
ltibia 35.9507
lfoot -14.0981 -7.26421
ltoes -16.0081
412
root -2.41601 17.8027 6.36648 881.156 -72.7752 -873.545
lowerback 21.28 -6.0873 -1.15274
upperback 4.66368 -8.55124 -0.291706
thorax -6.57396 -4.26209 2.58863
lowerneck 7.89189 -17.5483 -11.196
upperneck -12.8306 -23.6123 16.5724
head -1.7161 -12.4392 6.91463
rclavicle -2.8625e-014 4.6118e-014
rhumerus -27.8665 -5.44664 -54.8534
rradius 70.4821
rwrist -56.617
rhand 4.17778 -24.4228
rfingers 7.12502
rthumb 29.5854 -52.0844
lclavicle -2.8625e-014 4.6118e-014
lhumerus -60.1985 2.26699 84.2364
lradius 33.9226
lwrist -3.2013
lhand -11.2393 19.525
lfingers 7.12502
lthumb 14.79 48.9773
rfemur -33.373 17.331 17.851
rtibia 105.87
rfoot -20.4804 4.19826
rtoes -22.1616
lfemur -24.9646 8.22564 -20.578
ltibia 36.9301
lfoot -14.7996 -7.34311
ltoes -13.6444
413
root -2.47507 17.7588 6.37705 881.747 -72.7971 -873.869
lowerback 20.8977 -5.89819 -1.1628
upperback 4.41506 -8.28632 -0.286734
thorax -6.65358 -4.12171 2.50624
lowerneck 8.51256 -17.8398 -11.6934
upperneck -12.2877 -24.0836 16.8105
head -1.49798 -12.667 7.01794
rclavicle 1.35174e-014 -2.22639e-014
rhumerus -29.0071 -5.68913 -53.9862
rradius 70.6372
rwrist -57.03
rhand 5.25559 -23.8763
rfingers 7.12502
rthumb 30.6137 -51.3507
lclavicle 1.35174e-014 -2.22639e-014
lhumerus -62.3558 4.85606 84.5281
lradius 28.9775
lwrist -6.18033
lhand -8.35848 18.9533
lfingers 7.12502
lthumb 17.5639 48.1799
rfemur -29.2598 17.5156 16.5204
rtibia 102.515
rfoot -19.2104 3.33172
rtoes -18.3548
lfemur -25.4693 8.20953 -20.8223
ltibia 37.7039
lfoot -15.3208 -7.5649
ltoes -13.8479
414
root -2.52874 17.7343 6.37566 882.947 -72.9169 -874.706
lowerback 20.4181 -5.56329 -1.31965
upperback 4.09959 -7.85923 -0.302145
thorax -6.74282 -3.89825 2.43733
lowerneck 9.41987 -18.1112 -12.2206
upperneck -11.8909 -24.5594 16.9243
head -1.37786 -12.8972 7.13277
rclavicle -8.5875e-014 -6.36111e-015
rhumerus -30.4506 -6.31884 -53.0022
rradius 70.6186
rwrist -57.3569
rhand 6.25082 -23.4802
rfingers 7.12502
rthumb 31.5623 -50.7729
lclavicle -8.5875e-014 -6.36111e-015
lhumerus -64.5265 7.78535 82.9925
lradius 24.471
lwrist -11.3849
lhand -4.89999 18.1005
lfingers 7.12502
lthumb 20.8895 46.9958
rfemur -25.3044 17.6191 15.1225
rtibia 98.0779
rfoot -18.9271 1.97752
rtoes -18.2595
lfemur -26.0043 8.45011 -21.2341
ltibia 38.1941
lfoot -15.6168 -7.98942
ltoes -15.1246
415
root -2.5821 17.7214 6.36517 884.153 -73.0982 -875.491
lowerback 20.0006 -5.46015 -1.70102
upperback 3.951 -7.79133 -0.361253
thorax -6.64509 -3.85544 2.53049
lowerneck 8.961 -18.198 -11.8382
upperneck -10.9704 -24.6571 16.294
head -1.15593 -12.891 6.80662
rclavicle 3.89618e-014 -1.74931e-014
rhumerus -31.109 -6.74832 -52.7374
rradius 70.4278
rwrist -57.502
rhand 6.89153 -23.0029
rfingers 7.12502
rthumb 32.1724 -50.1742
lclavicle 3.89618e-014 -1.74931e-014
lhumerus -66.799 11.9994 78.5852
lradius 20.6844
lwrist -18.3576
lhand -0.886207 17.1398
lfingers 7.12502
lthumb 24.7413 45.5597
rfemur -21.2625 17.92 14.0134
rtibia 92.623
rfoot -18.9636 0.0732567
rtoes -19.4687
lfemur -26.4952 8.93314 -21.6462
ltibia 38.4731
lfoot -15.7068 -8.77122
ltoes -16.2512
416
root -2.62966 17.7206 6.35334 884.75 -73.3234 -875.66
lowerback 19.4762 -5.24278 -1.68826
upperback 3.75302 -7.48123 -0.346143
thorax -6.59481 -3.6992 2.422
lowerneck 8.89948 -18.3564 -11.9118
upperneck -10.2277 -24.9116 15.8228
head -0.950291 -12.9697 6.61242
rclavicle -1.35174e-014 -3.33958e-014
rhumerus -32.3619 -7.41325 -52.0394
rradius 70.3974
rwrist -57.618
rhand 7.32371 -22.3236
rfingers 7.12502
rthumb 32.5838 -49.4107
lclavicle -1.35174e-014 -3.33958e-014
lhumerus -69.8301 15.9639 72.0327
lradius 17.6967
lwrist -26.1585
lhand 3.22472 16.4835
lfingers 7.12502
lthumb 28.6753 44.3027
rfemur -17.1878 18.3162 13.384
rtibia 86.2867
rfoot -18.5929 -0.997522
rtoes -18.5336
lfemur -26.8766 9.38973 -21.859
ltibia 38.6025
lfoot -15.7001 -9.78911
ltoes -16.9936
417
root -2.66925 17.7264 6.34291 884.272 -73.4196 -874.67
lowerback 18.8395 -4.94453 -1.15823
upperback 3.57721 -6.95211 -0.193705
thorax -6.51047 -3.4474 2.1137
lowerneck 9.09748 -18.4665 -12.2595
upperneck -9.97149 -25.1225 15.5783
head -0.869832 -13.0467 6.57
rclavicle -9.93923e-014 9.54166e-015
rhumerus -33.6901 -8.39445 -51.0474
rradius 70.1913
rwrist -57.4873
rhand 7.99516 -21.5753
rfingers 7.12502
rthumb 33.2224 -48.5283
lclavicle -9.93923e-014 9.54166e-015
lhumerus -73.3329 19.053 64.5547
lradius 15.5746
lwrist -33.0183
lhand 5.50932 16.5297
lfingers 7.12502
lthumb 30.8557 43.9586
rfemur -13.3863 18.8371 13.3238
rtibia 79.3642
rfoot -18.1548 -1.7681
rtoes -18.5058
lfemur -27.2682 9.61708 -21.6334
ltibia 38.6607
lfoot -15.9301 -10.5589
ltoes -18.4723
418
root -2.70454 17.7393 6.33102 883.048 -73.302 -872.805
lowerback 18.137 -4.72226 -0.435893
upperback 3.41241 -6.48527 0.0677863
thorax -6.37561 -3.22994 1.82629
lowerneck 9.28448 -18.3015 -12.3701
upperneck -10.2473 -24.927 15.3038
head -1.03166 -12.9336 6.56783
rclavicle 3.65764e-014 -6.83819e-014
rhumerus -34.4828 -9.18429 -50.3084
rradius 69.605
rwrist -57.1245
rhand 9.06633 -20.8265
rfingers 7.12502
rthumb 34.2403 -47.5566
lclavicle 3.65764e-014 -6.83819e-014
lhumerus -76.8395 21.0934 57.8805
lradius 14.2995
lwrist -36.9834
lhand 6.02474 17.1665
lfingers 7.12502
lthumb 31.3469 44.5013
rfemur -9.99822 19.5266 13.698
rtibia 72.0563
rfoot -16.9411 -2.51254
rtoes -18.8042
lfemur -27.7213 9.55837 -21.0189
ltibia 38.6073
lfoot -16.2217 -10.928
ltoes -19.8655
419
root -2.73257 17.7607 6.31774 882.039 -73.1376 -871.028
lowerback 17.2751 -4.52292 0.274589
upperback 3.22243 -6.06166 0.326602
thorax -6.17041 -3.03318 1.54382
lowerneck 9.69642 -17.9892 -12.3806
upperneck -10.8586 -24.5311 15.106
head -1.35491 -12.7343 6.63944
rclavicle -3.57812e-014 -2.38542e-014
rhumerus -35.0803 -9.7581 -49.7367
rradius 68.9642
rwrist -56.7819
rhand 10.1412 -20.3005
rfingers 7.12502
rthumb 35.2602 -46.7954
lclavicle -3.57812e-014 -2.38542e-014
lhumerus -79.6182 21.9061 53.3278
lradius 13.7827
lwrist -37.7124
lhand 6.36741 17.7167
lfingers 7.12502
lthumb 31.6733 44.9876
rfemur -7.03677 20.202 14.0875
rtibia 64.5471
rfoot -15.486 -0.89282
rtoes -21.7403
lfemur -28.3298 9.23442 -20.3951
ltibia 38.5701
lfoot -16.5533 -11.0644
ltoes -20.3596
420
root -2.75917 17.7992 6.3061 881.246 -73.0234 -869.437
lowerback 16.34 -4.35933 1.00193
upperback 3.02884 -5.70082 0.527995
thorax -5.92695 -2.86699 1.20483
lowerneck 9.40733 -17.6737 -11.8825
upperneck -10.6326 -24.0922 14.015
head -1.50721 -12.4522 6.29434
rclavicle -1.35174e-014 -2.06736e-014
rhumerus -35.7462 -10.1271 -49.2028
rradius 68.5543
rwrist -56.725
rhand 11.0538 -19.9943
rfingers 7.12502
rthumb 36.1252 -46.28
lclavicle -1.35174e-014 -2.06736e-014
lhumerus -81.4913 21.9737 50.52
lradius 13.8016
lwrist -36.3575
lhand 7.21481 17.4132
lfingers 7.12502
lthumb 32.4801 44.5217
rfemur -4.37613 20.8202 14.414
rtibia 57.0707
rfoot -13.9697 0.898612
rtoes -22.4601
lfemur -28.833 8.54563 -19.8189
ltibia 38.3087
lfoot -16.9376 -10.8627
ltoes -20.4362
